<?xml version="1.0" encoding="UTF-8" standalone="no"?>
<!-- Created with Inkscape (http://www.inkscape.org/) -->

<svg
   xmlns:dc="http://purl.org/dc/elements/1.1/"
   xmlns:cc="http://creativecommons.org/ns#"
   xmlns:rdf="http://www.w3.org/1999/02/22-rdf-syntax-ns#"
   xmlns:svg="http://www.w3.org/2000/svg"
   xmlns="http://www.w3.org/2000/svg"
   xmlns:xlink="http://www.w3.org/1999/xlink"
   xmlns:sodipodi="http://sodipodi.sourceforge.net/DTD/sodipodi-0.dtd"
   xmlns:inkscape="http://www.inkscape.org/namespaces/inkscape"
   width="744.09448819"
   height="1052.3622047"
   id="svg2"
   version="1.1"
   inkscape:version="0.48.1 r9760"
   sodipodi:docname="icon.svg">
  <defs
     id="defs4">
    <linearGradient
       inkscape:collect="always"
       id="linearGradient3039">
      <stop
         style="stop-color:#e3dbdb;stop-opacity:1;"
         offset="0"
         id="stop3041" />
      <stop
         style="stop-color:#916f6f;stop-opacity:1"
         offset="1"
         id="stop3043" />
    </linearGradient>
    <linearGradient
       inkscape:collect="always"
       xlink:href="#linearGradient3039"
       id="linearGradient3045"
       x1="181.42857"
       y1="355.21933"
       x2="208.57143"
       y2="430.93362"
       gradientUnits="userSpaceOnUse" />
  </defs>
  <sodipodi:namedview
     id="base"
     pagecolor="#ffffff"
     bordercolor="#666666"
     borderopacity="1.0"
     inkscape:pageopacity="0.0"
     inkscape:pageshadow="2"
     inkscape:zoom="5.6"
     inkscape:cx="164.94546"
     inkscape:cy="676.65565"
     inkscape:document-units="px"
     inkscape:current-layer="layer1"
     showgrid="false"
     inkscape:window-width="1280"
     inkscape:window-height="776"
     inkscape:window-x="0"
     inkscape:window-y="24"
     inkscape:window-maximized="1" />
  <metadata
     id="metadata7">
    <rdf:RDF>
      <cc:Work
         rdf:about="">
        <dc:format>image/svg+xml</dc:format>
        <dc:type
           rdf:resource="http://purl.org/dc/dcmitype/StillImage" />
        <dc:title></dc:title>
      </cc:Work>
    </rdf:RDF>
  </metadata>
  <g
     inkscape:label="Layer 1"
     inkscape:groupmode="layer"
     id="layer1">
    <rect
       style="fill:#e3dbdb"
       id="rect3005"
       width="118.57143"
       height="115.71429"
       x="112.85714"
       y="333.79074" />
    <path
       style="fill:url(#linearGradient3045);fill-opacity:1;stroke:#000000;stroke-opacity:1"
       d="m 112.87724,391.63386 0,-57.85715 59.28571,0 59.28572,0 0,57.85715 0,57.85714 -59.28572,0 -59.28571,0 0,-57.85714 z"
       id="path3007"
       inkscape:connector-curvature="0" />
    <path
       style="font-size:78.63508606px;font-style:normal;font-variant:normal;font-weight:bold;font-stretch:normal;line-height:125%;letter-spacing:0px;word-spacing:0px;fill:#0000ff;fill-opacity:1;stroke:none;font-family:Droid Sans;-inkscape-font-specification:Droid Sans Bold"
       d="M 168.25 350.375 L 160.375 358.46875 L 162.84375 358.5625 L 162.71875 366.59375 L 162.65625 366.59375 L 162.65625 404.34375 C 162.65621 408.54292 161.93977 411.69541 160.53125 413.78125 C 159.14654 415.86711 156.90868 416.90626 153.78125 416.90625 C 152.27718 416.90626 150.96579 416.68533 149.84375 416.21875 C 148.72166 415.75219 147.76394 415.0193 147 414.03125 C 146.2599 413.01578 145.69446 411.72065 145.3125 410.15625 C 144.9305 408.56443 144.74998 406.6606 144.75 404.4375 L 144.75 366.59375 L 133.6875 366.59375 L 133.6875 405.375 C 133.68749 408.72336 134.10929 411.78672 134.96875 414.53125 C 135.8282 417.24836 137.07145 419.58263 138.71875 421.53125 C 140.3899 423.47988 142.47849 424.96088 144.9375 426.03125 C 147.42035 427.07418 150.27702 427.625 153.5 427.625 C 156.91392 427.625 159.8756 427.06276 162.40625 425.9375 C 164.93683 424.81224 167.04755 423.25732 168.71875 421.28125 C 170.41374 419.30519 171.657 416.97091 172.46875 414.28125 C 173.30429 411.59161 173.7187 408.66005 173.71875 405.53125 L 173.71875 368.59375 L 173.71875 366.59375 L 173.71875 358.59375 L 176.125 358.59375 L 168.25 350.375 z "
       id="text2997" />
    <g
       transform="scale(0.93266434,1.0721971)"
       style="font-size:78.63508606px;font-style:normal;font-variant:normal;font-weight:bold;font-stretch:normal;line-height:125%;letter-spacing:0px;word-spacing:0px;fill:#ff00ff;fill-opacity:1;stroke:none;font-family:Droid Sans;-inkscape-font-specification:Droid Sans Bold"
       id="text3001">
      <path
         d="m 208.79002,398.81656 -11.71079,0 0,-56.13501 32.17588,0 0,9.75259 -20.46509,0 0,14.47531 19.04444,0 0,9.7142 -19.04444,0 0,22.19291"
         style=""
         id="path5312" />
    </g>
  </g>
</svg>
